# xmcd
#
# Track frame offsets:
#   150
#   19185
#   33888
#   59783
#   74728
#   88045
#   102133
#   121458
#   143858
#   159355
#   172103
#   202145
#
# Disc length: 3102 seconds
#
# Revision: 2
# Processed by: cddbd v1.5.1PL0 Copyright (c) Steve Scherf et al.
# Submitted via: uFREEDB_test 1.6.2
#
DISCID=b20c1c0c
DTITLE=Reidar Larsen - Robbery
DYEAR=1993
DGENRE=Blues
TTITLE0=Rain Rain Rain
TTITLE1=Yesterdays Star
TTITLE2=Robbery
TTITLE3=Shame on you
TTITLE4=Did I see you on MTV
TTITLE5=Me and my piano
TTITLE6=Mr. Understanding and Miss Understood
TTITLE7=Ain't that what good friends are for
TTITLE8=Doggone Done Gone
TTITLE9=Mumbo Jumbo
TTITLE10=I just can't please her
TTITLE11=Have a little talk with yourself
EXTD=
EXTT0=
EXTT1=
EXTT2=
EXTT3=
EXTT4=
EXTT5=
EXTT6=
EXTT7=
EXTT8=
EXTT9=
EXTT10=
EXTT11=
PLAYORDER=
